<?xml version="1.0" encoding="utf-8"?>
<svg version="1.1" id="Layer_1" xmlns="http://www.w3.org/2000/svg" xmlns:xlink="http://www.w3.org/1999/xlink" x="0px" y="0px"
	 viewBox="0 0 200 50" style="enable-background:new 0 0 200 50;" xml:space="preserve">
<style type="text/css">
	.st0{fill:#f7fbff;}
	.st1{fill:url(#SVGID_1_);}
</style>
<g>
	<path class="st0" d="M75.6,37c-1.3-0.7-2.3-1.9-3-3.8c-0.7-1.9-1-4.5-1-8c0-3.3,0.4-5.9,1.1-7.8c0.7-1.9,1.7-3.1,3-3.8
		c1.3-0.7,3-1.1,5-1.1c1.5,0,3,0.1,4.3,0.4c1.4,0.2,2.5,0.5,3.5,0.8v3.9c-0.7-0.2-1.6-0.3-2.9-0.4c-1.2-0.1-2.5-0.2-3.9-0.2
		c-1.4,0-2.4,0.2-3.1,0.6c-0.7,0.4-1.2,1.2-1.6,2.4c-0.3,1.2-0.5,2.9-0.5,5.2c0,2.3,0.1,4,0.4,5.2c0.3,1.2,0.8,2,1.5,2.4
		c0.7,0.5,1.8,0.7,3.2,0.7c2.8,0,5-0.1,6.8-0.3V37c-2,0.7-4.6,1-7.9,1C78.6,38,76.9,37.7,75.6,37z"/>
	<path class="st0" d="M93.3,36.5c-0.9-1-1.4-2.5-1.4-4.5V12h5v19.2c0,1,0.1,1.7,0.4,2.1c0.3,0.4,0.8,0.7,1.5,0.8l1.4,0.2v3.6h-2.6
		C95.6,37.9,94.2,37.4,93.3,36.5z"/>
	<path class="st0" d="M102.5,16.8c-0.1-0.1-0.2-0.3-0.2-0.5V13c0-0.5,0.2-0.7,0.7-0.7h3.9c0.2,0,0.4,0.1,0.5,0.2
		c0.1,0.1,0.2,0.3,0.2,0.5v3.3c0,0.5-0.2,0.7-0.6,0.7h-3.9C102.8,17,102.7,16.9,102.5,16.8z M102.5,19.6h5v18.2h-5V19.6z"/>
	<path class="st0" d="M114,37.8c-1.4-0.1-2.4-0.3-3.1-0.6v-2.9h8.1c0.7,0,1.3-0.1,1.6-0.3c0.3-0.2,0.5-0.6,0.5-1.2v-0.6
		c0-0.5-0.2-0.8-0.5-1.1c-0.3-0.2-0.8-0.4-1.6-0.4h-2.8c-1.7,0-3-0.4-4-1.2c-1-0.8-1.5-2-1.5-3.8v-1.1c0-1.8,0.5-3.1,1.6-4
		c1.1-0.9,3-1.3,5.7-1.3c1.1,0,2.3,0.1,3.6,0.3c1.3,0.2,2.3,0.4,3,0.6v2.9h-7.6c-0.7,0-1.2,0.1-1.5,0.3c-0.3,0.2-0.5,0.6-0.5,1.2
		v0.5c0,0.6,0.2,0.9,0.5,1.1c0.3,0.2,0.9,0.3,1.7,0.3h2.9c1.8,0,3.1,0.4,4,1.2c0.9,0.8,1.3,2,1.3,3.5v1.6c0,1.8-0.6,3-1.8,3.8
		c-1.2,0.7-3.1,1.1-5.6,1.1C116.7,38,115.4,38,114,37.8z"/>
	<path class="st0" d="M131.2,37.2c-1.2-0.5-2-1.5-2.6-2.8c-0.5-1.3-0.8-3.2-0.8-5.6c0-2.5,0.2-4.4,0.7-5.7c0.5-1.3,1.3-2.3,2.5-2.8
		c1.1-0.5,2.7-0.8,4.8-0.8c1.9,0,3.3,0.2,4.4,0.5c1.1,0.4,1.8,1,2.3,1.9c0.5,0.9,0.7,2.2,0.7,3.8c0,1.8-0.5,3-1.5,3.8
		c-1,0.7-2.5,1.1-4.4,1.1h-4.6c0,1,0.2,1.7,0.4,2.3c0.2,0.5,0.7,0.9,1.3,1.2c0.6,0.2,1.6,0.4,2.8,0.4h5.3v2.9
		c-1.2,0.2-2.3,0.4-3.3,0.6c-1,0.1-2.1,0.2-3.4,0.2C134,38,132.4,37.7,131.2,37.2z M136.9,27.5c0.7,0,1.2-0.1,1.5-0.4
		c0.3-0.3,0.5-0.8,0.5-1.4c0-1-0.2-1.7-0.7-2.1c-0.5-0.4-1.2-0.6-2.3-0.6c-0.8,0-1.4,0.1-1.8,0.4c-0.4,0.3-0.8,0.7-1,1.4
		c-0.2,0.7-0.3,1.6-0.3,2.8H136.9z"/>
	<path class="st0" d="M146.6,19.6h3.9l1.2,2.8c0.7-0.9,1.5-1.7,2.3-2.2c0.8-0.5,1.8-0.8,2.8-0.8c0.6,0,1.1,0.1,1.5,0.2v5.1
		c-1.2-0.1-1.9-0.2-2.1-0.2c-1,0-1.8,0.2-2.5,0.5c-0.7,0.3-1.4,0.8-2,1.5v11.3h-5V19.6z"/>
	<path class="st0" d="M169.9,12.8h5v25.1h-5V12.8z"/>
	<path class="st0" d="M184.5,17.3h-6.9v-4.5h18.8v4.5h-6.9v20.6h-5V17.3z"/>
</g>
<linearGradient id="SVGID_1_" gradientUnits="userSpaceOnUse" x1="19.4091" y1="41.1804" x2="51.3932" y2="9.1963">
	<stop  offset="0" style="stop-color:#4496D0"/>
	<stop  offset="1" style="stop-color:#78B6E3"/>
</linearGradient>
<path class="st1" d="M46.8,4.2l-5.6,5.6l-5.6-5.6l-2.5,2.5L51.2,25l-10,10l-3-3l6.9-6.9L24.3,4.2L3.5,25l20.8,20.8l5.6-5.6l5.6,5.6
	l2.6-2.6L20,25l10-10l3,3L26.1,25l20.8,20.8L67.6,25L46.8,4.2z M14.8,25l12.6,12.6l-3,3L8.7,25L24.3,9.4l3,3L14.8,25z M31.3,25
	l4.3-4.3l4.3,4.3l-4.3,4.3L31.3,25z M43.8,37.6L56.4,25L43.8,12.4l3-3L62.4,25L46.8,40.6L43.8,37.6z"/>
</svg>
