<svg xmlns="http://www.w3.org/2000/svg" class="css-z1hnz5" viewBox="0 0 395 162" preserveAspectRatio="xMidYMid meet"><defs id="SvgjsDefs1001" /><g id="main_text" fill="#fff" transform="translate(14.3516 116.43) scale(2.31572)" rel="mainfill" xmlns:name="mainText_mainfill" name="main_text" feature="main_text" groupname="main_text"><path d="M 3.04 5 c 0.4 0 0.72 0.32 0.72 0.72 l 0 1.46 c 0 0.4 -0.32 0.72 -0.72 0.72 l -2.06 0 c -0.38 0 -0.7 -0.32 -0.7 -0.72 l 0 -1.46 c 0 -0.4 0.32 -0.72 0.7 -0.72 l 2.06 0 Z M 11.98 5 c 0.38 0 0.7 0.32 0.7 0.72 l 0 1.46 c 0 0.4 -0.32 0.72 -0.7 0.72 l -4.02 0 l 0 11.36 c 0 0.38 -0.32 0.7 -0.7 0.7 l -1.54 0 c -0.4 0 -0.72 -0.32 -0.72 -0.7 l 0 -13.54 c 0 -0.4 0.32 -0.72 0.72 -0.72 l 6.26 0 Z M 25.16 16.96 c 0.4 0 0.7 0.32 0.7 0.72 l 0 1.46 c 0 0.38 -0.3 0.7 -0.7 0.7 l -9.88 0 c -0.38 0 -0.7 -0.32 -0.7 -0.7 l 0 -1.46 c 0 -0.4 0.32 -0.72 0.7 -0.72 l 9.88 0 Z M 15.28 13.86 c -0.38 0 -0.7 -0.32 -0.7 -0.7 l 0 -1.5 c 0 -0.38 0.32 -0.7 0.7 -0.7 l 8.98 0 c 0.4 0 0.72 0.32 0.72 0.7 l 0 1.5 c 0 0.38 -0.32 0.7 -0.72 0.7 l -8.98 0 Z M 25.16 5 c 0.4 0 0.7 0.32 0.7 0.7 l 0 1.46 c 0 0.4 -0.3 0.72 -0.7 0.72 l -9.88 0 c -0.38 0 -0.7 -0.32 -0.7 -0.72 l 0 -1.46 c 0 -0.38 0.32 -0.7 0.7 -0.7 l 9.88 0 Z M 35.66 7.86 c -0.36 -0.06 -0.6 -0.34 -0.6 -0.7 l 0 -1.46 c 0 -0.2 0.08 -0.4 0.24 -0.52 c 0.16 -0.14 0.36 -0.2 0.56 -0.18 c 1.14 0.18 2.16 0.58 3.06 1.22 c 1.14 0.82 1.98 1.94 2.46 3.34 c 0.08 0.22 0.04 0.46 -0.08 0.64 c -0.14 0.2 -0.36 0.3 -0.58 0.3 l -1.6 0 c -0.28 0 -0.54 -0.16 -0.66 -0.42 c -0.3 -0.7 -0.74 -1.24 -1.34 -1.66 c -0.44 -0.28 -0.92 -0.48 -1.46 -0.56 Z M 40.72 14.5 c 0.22 0 0.44 0.1 0.58 0.3 c 0.12 0.18 0.16 0.42 0.08 0.64 c -0.48 1.4 -1.32 2.52 -2.46 3.34 c -0.9 0.64 -1.92 1.04 -3.06 1.22 l -0.1 0 c -0.18 0 -0.34 -0.06 -0.46 -0.18 c -0.16 -0.12 -0.24 -0.32 -0.24 -0.52 l 0 -1.46 c 0 -0.36 0.24 -0.64 0.58 -0.7 c 0.56 -0.08 1.04 -0.26 1.48 -0.56 c 0.6 -0.42 1.04 -0.96 1.34 -1.66 c 0.12 -0.26 0.38 -0.42 0.66 -0.42 l 1.6 0 Z M 33.56 5.24 c 0.16 0.12 0.26 0.32 0.26 0.54 l 0 1.56 c 0 0.3 -0.22 0.58 -0.52 0.68 c -0.16 0.04 -0.3 0.08 -0.44 0.14 c -0.54 0.24 -0.98 0.56 -1.36 0.98 c -0.76 0.86 -1.14 1.96 -1.14 3.36 s 0.38 2.5 1.14 3.36 c 0.48 0.54 1.06 0.9 1.8 1.12 c 0.3 0.08 0.52 0.36 0.52 0.66 l 0 1.58 c 0 0.22 -0.1 0.42 -0.26 0.54 c -0.14 0.12 -0.3 0.16 -0.46 0.16 l -0.14 0 c -1.42 -0.3 -2.64 -1 -3.62 -2.08 c -1.26 -1.42 -1.9 -3.2 -1.9 -5.34 c 0 -2.12 0.64 -3.92 1.9 -5.34 c 0.98 -1.08 2.2 -1.78 3.62 -2.06 c 0.22 -0.06 0.42 0 0.6 0.14 Z M 44.38 10.12 c -0.38 0 -0.7 -0.32 -0.7 -0.7 l 0 -3.72 c 0 -0.38 0.32 -0.7 0.7 -0.7 l 1.52 0 c 0.4 0 0.7 0.32 0.7 0.7 l 0 3.72 c 0 0.38 -0.3 0.7 -0.7 0.7 l -1.52 0 Z M 55.24 5 c 0.38 0 0.7 0.32 0.7 0.7 l 0 13.44 c 0 0.38 -0.32 0.7 -0.7 0.7 l -1.52 0 c -0.4 0 -0.7 -0.32 -0.7 -0.7 l 0 -5.28 l -6.42 0 l 0 5.28 c 0 0.38 -0.3 0.7 -0.7 0.7 l -1.52 0 c -0.38 0 -0.7 -0.32 -0.7 -0.7 l 0 -7.48 c 0 -0.38 0.32 -0.7 0.7 -0.7 l 8.64 0 l 0 -5.26 c 0 -0.38 0.3 -0.7 0.7 -0.7 l 1.52 0 Z M 67.04 7.9 c -0.32 -0.06 -0.56 -0.36 -0.56 -0.68 l 0 -1.52 c 0 -0.2 0.1 -0.4 0.24 -0.54 c 0.16 -0.12 0.38 -0.18 0.58 -0.14 c 1.56 0.26 2.9 0.96 4 2.1 c 0.56 0.58 1.02 1.26 1.36 2 c 0.12 0.2 0.1 0.46 -0.04 0.66 c -0.12 0.2 -0.34 0.34 -0.58 0.34 l -1.7 0 c -0.24 0 -0.48 -0.14 -0.6 -0.34 c -0.16 -0.24 -0.32 -0.46 -0.52 -0.66 c -0.6 -0.62 -1.32 -1.02 -2.18 -1.22 Z M 65 5.16 c 0.14 0.14 0.24 0.34 0.24 0.54 l 0 1.52 c 0 0.32 -0.24 0.62 -0.56 0.68 c -0.88 0.2 -1.58 0.6 -2.18 1.22 c -0.82 0.88 -1.24 1.98 -1.24 3.36 s 0.42 2.46 1.24 3.34 c 0.6 0.64 1.3 1.02 2.18 1.22 c 0.32 0.06 0.56 0.36 0.56 0.68 l 0 1.52 c 0 0.2 -0.1 0.4 -0.26 0.54 c -0.12 0.1 -0.28 0.16 -0.44 0.16 l -0.12 0 c -1.56 -0.28 -2.92 -0.98 -4 -2.12 c -1.38 -1.42 -2.08 -3.22 -2.08 -5.34 c 0 -2.14 0.7 -3.94 2.08 -5.36 c 1.08 -1.14 2.44 -1.84 4 -2.1 c 0.2 -0.04 0.42 0.02 0.58 0.14 Z M 73.36 12.06 c 0.02 0.14 0.02 0.26 0.02 0.42 c 0 0.32 -0.02 0.64 -0.06 1.02 c -0.2 1.7 -0.88 3.14 -2.02 4.32 c -1.1 1.14 -2.44 1.84 -4 2.12 l -0.12 0 c -0.16 0 -0.32 -0.06 -0.46 -0.16 c -0.14 -0.14 -0.24 -0.34 -0.24 -0.54 l 0 -1.52 c 0 -0.32 0.24 -0.62 0.56 -0.68 c 0.86 -0.2 1.58 -0.58 2.18 -1.22 c 0.46 -0.48 0.8 -1.04 1 -1.7 l -4.24 0 c -0.4 0 -0.7 -0.3 -0.7 -0.7 l 0 -1.42 c 0 -0.38 0.3 -0.7 0.7 -0.7 l 6.68 0 c 0.38 0 0.68 0.28 0.7 0.66 l 0 0.1 Z M 77.8 10.94 c 0.4 0 0.7 0.32 0.7 0.72 l 0 7.48 c 0 0.38 -0.3 0.7 -0.7 0.7 l -1.52 0 c -0.38 0 -0.7 -0.32 -0.7 -0.7 l 0 -7.48 c 0 -0.4 0.32 -0.72 0.7 -0.72 l 1.52 0 Z M 77.8 5 c 0.4 0 0.7 0.32 0.7 0.7 l 0 3.7 c 0 0.4 -0.3 0.72 -0.7 0.72 l -1.52 0 c -0.38 0 -0.7 -0.32 -0.7 -0.72 l 0 -3.7 c 0 -0.38 0.32 -0.7 0.7 -0.7 l 1.52 0 Z M 95.48 5 c 0.38 0 0.7 0.32 0.7 0.7 l 0 13.4 c 0 0.38 -0.32 0.7 -0.7 0.7 l -1.52 0 c -0.4 0 -0.7 -0.32 -0.7 -0.7 l 0 -9.04 l -3.7 4.76 c -0.14 0.16 -0.34 0.26 -0.56 0.26 l 0 0 c -0.22 0 -0.44 -0.1 -0.56 -0.28 l -6.56 -8.68 c -0.16 -0.2 -0.18 -0.5 -0.06 -0.72 c 0.12 -0.24 0.36 -0.4 0.62 -0.4 l 1.76 0 c 0.22 0 0.42 0.1 0.56 0.28 l 4.24 5.6 l 4.14 -5.6 c 0.14 -0.18 0.34 -0.28 0.58 -0.28 l 1.76 0 Z M 83.96 14.7 c 0.38 0 0.7 0.3 0.7 0.7 l 0 3.7 c 0 0.38 -0.32 0.7 -0.7 0.7 l -1.52 0 c -0.38 0 -0.7 -0.32 -0.7 -0.7 l 0 -3.7 c 0 -0.4 0.32 -0.7 0.7 -0.7 l 1.52 0 Z M 113.16 5 c 0.38 0 0.7 0.32 0.7 0.7 l 0 13.4 c 0 0.38 -0.32 0.7 -0.7 0.7 l -1.52 0 c -0.4 0 -0.7 -0.32 -0.7 -0.7 l 0 -9.04 l -3.7 4.76 c -0.14 0.16 -0.34 0.26 -0.56 0.26 l 0 0 c -0.22 0 -0.44 -0.1 -0.56 -0.28 l -6.56 -8.68 c -0.16 -0.2 -0.18 -0.5 -0.06 -0.72 c 0.12 -0.24 0.36 -0.4 0.62 -0.4 l 1.76 0 c 0.22 0 0.42 0.1 0.56 0.28 l 4.24 5.6 l 4.14 -5.6 c 0.14 -0.18 0.34 -0.28 0.58 -0.28 l 1.76 0 Z M 101.64 14.7 c 0.38 0 0.7 0.3 0.7 0.7 l 0 3.7 c 0 0.38 -0.32 0.7 -0.7 0.7 l -1.52 0 c -0.38 0 -0.7 -0.32 -0.7 -0.7 l 0 -3.7 c 0 -0.4 0.32 -0.7 0.7 -0.7 l 1.52 0 Z M 119.32 10.94 c 0.4 0 0.7 0.32 0.7 0.72 l 0 7.48 c 0 0.38 -0.3 0.7 -0.7 0.7 l -1.52 0 c -0.38 0 -0.7 -0.32 -0.7 -0.7 l 0 -7.48 c 0 -0.4 0.32 -0.72 0.7 -0.72 l 1.52 0 Z M 119.32 5 c 0.4 0 0.7 0.32 0.7 0.7 l 0 3.7 c 0 0.4 -0.3 0.72 -0.7 0.72 l -1.52 0 c -0.38 0 -0.7 -0.32 -0.7 -0.72 l 0 -3.7 c 0 -0.38 0.32 -0.7 0.7 -0.7 l 1.52 0 Z M 130.64 7.86 c -0.36 -0.06 -0.6 -0.34 -0.6 -0.7 l 0 -1.46 c 0 -0.2 0.08 -0.4 0.24 -0.52 c 0.16 -0.14 0.36 -0.2 0.56 -0.18 c 1.14 0.18 2.16 0.58 3.06 1.22 c 1.14 0.82 1.98 1.94 2.46 3.34 c 0.08 0.22 0.04 0.46 -0.08 0.64 c -0.14 0.2 -0.36 0.3 -0.58 0.3 l -1.6 0 c -0.28 0 -0.54 -0.16 -0.66 -0.42 c -0.3 -0.7 -0.74 -1.24 -1.34 -1.66 c -0.44 -0.28 -0.92 -0.48 -1.46 -0.56 Z M 135.7 14.5 c 0.22 0 0.44 0.1 0.58 0.3 c 0.12 0.18 0.16 0.42 0.08 0.64 c -0.48 1.4 -1.32 2.52 -2.46 3.34 c -0.9 0.64 -1.92 1.04 -3.06 1.22 l -0.1 0 c -0.18 0 -0.34 -0.06 -0.46 -0.18 c -0.16 -0.12 -0.24 -0.32 -0.24 -0.52 l 0 -1.46 c 0 -0.36 0.24 -0.64 0.58 -0.7 c 0.56 -0.08 1.04 -0.26 1.48 -0.56 c 0.6 -0.42 1.04 -0.96 1.34 -1.66 c 0.12 -0.26 0.38 -0.42 0.66 -0.42 l 1.6 0 Z M 128.54 5.24 c 0.16 0.12 0.26 0.32 0.26 0.54 l 0 1.56 c 0 0.3 -0.22 0.58 -0.52 0.68 c -0.16 0.04 -0.3 0.08 -0.44 0.14 c -0.54 0.24 -0.98 0.56 -1.36 0.98 c -0.76 0.86 -1.14 1.96 -1.14 3.36 s 0.38 2.5 1.14 3.36 c 0.48 0.54 1.06 0.9 1.8 1.12 c 0.3 0.08 0.52 0.36 0.52 0.66 l 0 1.58 c 0 0.22 -0.1 0.42 -0.26 0.54 c -0.14 0.12 -0.3 0.16 -0.46 0.16 l -0.14 0 c -1.42 -0.3 -2.64 -1 -3.62 -2.08 c -1.26 -1.42 -1.9 -3.2 -1.9 -5.34 c 0 -2.12 0.64 -3.92 1.9 -5.34 c 0.98 -1.08 2.2 -1.78 3.62 -2.06 c 0.22 -0.06 0.42 0 0.6 0.14 Z M 151.36 18.7 c 0.16 0.2 0.18 0.48 0.06 0.72 s -0.36 0.38 -0.62 0.38 l -1.9 0 c -0.24 0 -0.46 -0.12 -0.58 -0.3 l -4.78 -6.88 l -1.96 1.84 l 0 4.64 c 0 0.38 -0.32 0.7 -0.7 0.7 l -1.52 0 c -0.38 0 -0.7 -0.32 -0.7 -0.7 l 0 -5.56 c 0 -0.2 0.08 -0.38 0.22 -0.5 l 8.36 -7.84 c 0.14 -0.14 0.3 -0.2 0.48 -0.2 l 2.16 0 c 0.28 0 0.54 0.18 0.64 0.44 c 0.12 0.28 0.04 0.58 -0.16 0.78 l -4.68 4.4 Z M 139.36 10.1 c -0.38 0 -0.7 -0.3 -0.7 -0.7 l 0 -3.7 c 0 -0.38 0.32 -0.7 0.7 -0.7 l 1.52 0 c 0.38 0 0.7 0.32 0.7 0.7 l 0 3.7 c 0 0.4 -0.32 0.7 -0.7 0.7 l -1.52 0 Z M 162.8 12.42 c 1.14 0.72 1.76 1.78 1.76 3.06 c 0 1.5 -0.58 2.66 -1.72 3.46 c -0.8 0.58 -1.86 0.92 -3.14 1.06 l -0.08 0 c -0.16 0 -0.34 -0.06 -0.46 -0.18 c -0.16 -0.14 -0.24 -0.32 -0.24 -0.52 l 0 -1.44 c 0 -0.36 0.28 -0.66 0.62 -0.7 c 2.08 -0.24 2.08 -1.2 2.08 -1.62 c 0 -0.3 -0.1 -0.5 -0.36 -0.68 c -0.4 -0.28 -0.9 -0.5 -1.5 -0.68 c -0.1 -0.02 -0.18 -0.06 -0.26 -0.08 l -0.06 -0.02 c -0.58 -0.16 -1.2 -0.32 -1.84 -0.46 c -0.24 -0.04 -0.5 -0.12 -0.8 -0.2 c -0.54 -0.14 -1.06 -0.32 -1.52 -0.5 c -0.76 -0.32 -1.42 -0.74 -1.94 -1.26 c -0.58 -0.58 -0.88 -1.36 -0.88 -2.32 c 0 -1.32 0.52 -2.4 1.52 -3.22 c 0.72 -0.6 1.7 -0.96 2.92 -1.12 c 0.2 -0.02 0.4 0.04 0.56 0.18 c 0.14 0.14 0.22 0.32 0.22 0.52 l 0 1.44 c 0 0.34 -0.24 0.64 -0.58 0.7 c -0.2 0.02 -0.36 0.06 -0.5 0.1 c -0.38 0.14 -0.66 0.28 -0.84 0.44 c -0.16 0.14 -0.26 0.28 -0.32 0.42 c -0.06 0.2 -0.1 0.42 -0.1 0.64 c 0 0.06 0 0.16 0.18 0.34 c 0.2 0.2 0.48 0.36 0.82 0.5 c 0.24 0.1 0.54 0.2 0.84 0.3 c 0.18 0.04 0.36 0.1 0.54 0.14 c 0.56 0.14 1.12 0.28 1.7 0.42 c 0.08 0.02 0.16 0.04 0.26 0.06 l 0.12 0.04 c 0.52 0.14 0.96 0.26 1.36 0.4 c 0.6 0.2 1.16 0.46 1.64 0.78 Z M 159.46 7.9 c -0.32 -0.08 -0.54 -0.36 -0.54 -0.7 l 0 -1.46 c 0 -0.2 0.1 -0.4 0.26 -0.54 c 0.14 -0.12 0.36 -0.18 0.56 -0.14 c 1.16 0.18 2.12 0.58 2.86 1.2 c 1 0.82 1.54 1.88 1.6 3.16 c 0.02 0.2 -0.06 0.38 -0.18 0.52 c -0.14 0.14 -0.32 0.22 -0.52 0.22 l -1.56 0 c -0.34 0 -0.64 -0.26 -0.68 -0.62 c -0.08 -0.5 -0.3 -1.24 -1.64 -1.62 c -0.04 0 -0.06 0 -0.08 -0.02 l -0.08 0 Z M 157.12 17.08 c 0.34 0.06 0.56 0.36 0.56 0.68 l 0 1.48 c 0 0.2 -0.08 0.4 -0.24 0.54 c -0.12 0.1 -0.28 0.16 -0.46 0.16 l -0.1 0 c -1.24 -0.18 -2.28 -0.6 -3.06 -1.22 c -1.02 -0.82 -1.62 -1.98 -1.76 -3.46 c -0.02 -0.2 0.04 -0.4 0.18 -0.54 c 0.14 -0.16 0.32 -0.24 0.52 -0.24 l 1.58 0 c 0.38 0 0.68 0.3 0.7 0.66 c 0.04 0.68 0.36 1.18 0.98 1.54 c 0.32 0.18 0.68 0.3 1.1 0.4 Z" /></g><g id="SvgjsG1008" fill="#fff" transform="translate(105.079 -34.3059) scale(6.86118)" rel="mainfill" xmlns:name="monogram_mainfill" name="monogram" feature="monogram"><path d="M 3.04 5 c 0.4 0 0.72 0.32 0.72 0.72 l 0 1.46 c 0 0.4 -0.32 0.72 -0.72 0.72 l -2.06 0 c -0.38 0 -0.7 -0.32 -0.7 -0.72 l 0 -1.46 c 0 -0.4 0.32 -0.72 0.7 -0.72 l 2.06 0 Z M 11.98 5 c 0.38 0 0.7 0.32 0.7 0.72 l 0 1.46 c 0 0.4 -0.32 0.72 -0.7 0.72 l -4.02 0 l 0 11.36 c 0 0.38 -0.32 0.7 -0.7 0.7 l -1.54 0 c -0.4 0 -0.72 -0.32 -0.72 -0.7 l 0 -13.54 c 0 -0.4 0.32 -0.72 0.72 -0.72 l 6.26 0 Z M 22.44 7.9 c -0.32 -0.06 -0.56 -0.36 -0.56 -0.68 l 0 -1.52 c 0 -0.2 0.1 -0.4 0.24 -0.54 c 0.16 -0.12 0.38 -0.18 0.58 -0.14 c 1.56 0.26 2.9 0.96 4 2.1 c 0.56 0.58 1.02 1.26 1.36 2 c 0.12 0.2 0.1 0.46 -0.04 0.66 c -0.12 0.2 -0.34 0.34 -0.58 0.34 l -1.7 0 c -0.24 0 -0.48 -0.14 -0.6 -0.34 c -0.16 -0.24 -0.32 -0.46 -0.52 -0.66 c -0.6 -0.62 -1.32 -1.02 -2.18 -1.22 Z M 20.4 5.16 c 0.14 0.14 0.24 0.34 0.24 0.54 l 0 1.52 c 0 0.32 -0.24 0.62 -0.56 0.68 c -0.88 0.2 -1.58 0.6 -2.18 1.22 c -0.82 0.88 -1.24 1.98 -1.24 3.36 s 0.42 2.46 1.24 3.34 c 0.6 0.64 1.3 1.02 2.18 1.22 c 0.32 0.06 0.56 0.36 0.56 0.68 l 0 1.52 c 0 0.2 -0.1 0.4 -0.26 0.54 c -0.12 0.1 -0.28 0.16 -0.44 0.16 l -0.12 0 c -1.56 -0.28 -2.92 -0.98 -4 -2.12 c -1.38 -1.42 -2.08 -3.22 -2.08 -5.34 c 0 -2.14 0.7 -3.94 2.08 -5.36 c 1.08 -1.14 2.44 -1.84 4 -2.1 c 0.2 -0.04 0.42 0.02 0.58 0.14 Z M 28.76 12.06 c 0.02 0.14 0.02 0.26 0.02 0.42 c 0 0.32 -0.02 0.64 -0.06 1.02 c -0.2 1.7 -0.88 3.14 -2.02 4.32 c -1.1 1.14 -2.44 1.84 -4 2.12 l -0.12 0 c -0.16 0 -0.32 -0.06 -0.46 -0.16 c -0.14 -0.14 -0.24 -0.34 -0.24 -0.54 l 0 -1.52 c 0 -0.32 0.24 -0.62 0.56 -0.68 c 0.86 -0.2 1.58 -0.58 2.18 -1.22 c 0.46 -0.48 0.8 -1.04 1 -1.7 l -4.24 0 c -0.4 0 -0.7 -0.3 -0.7 -0.7 l 0 -1.42 c 0 -0.38 0.3 -0.7 0.7 -0.7 l 6.68 0 c 0.38 0 0.68 0.28 0.7 0.66 l 0 0.1 Z" /></g></svg>